inDegrees=no
num_controls=7
num_derivatives=13
num_iterations=153
num_multipliers=7
num_parameters=0
num_slacks=7
num_states=26
objective=0.650795
objective_accelerations=0.038942
objective_balance=0.005702
objective_effort=0.025160
objective_height=0.373807
objective_ligament=0.207184
solver_duration=1953.674734
status=Solve_Succeeded
success=true
DataType=double
version=3
OpenSimVersion=4.5
endheader
time	/jointset/ground_pelvis/pelvis_tilt/value	/jointset/ground_pelvis/pelvis_tx/value	/jointset/ground_pelvis/pelvis_ty/value	/jointset/hip_l/hip_flexion_l/value	/jointset/hip_l/hip_adduction_l/value	/jointset/hip_l/hip_rotation_l/value	/jointset/back/lumbar_extension/value	/jointset/patellofemoral_l/patellar_flexion_l/value	/jointset/knee_l/knee_flexion_l/value	/jointset/knee_l/knee_adduction_l/value	/jointset/knee_l/knee_rotation_l/value	/jointset/ankle_l/ankle_angle_l/value	/jointset/subtalar_l/subtalar_angle_l/value	/jointset/ground_pelvis/pelvis_tilt/speed	/jointset/ground_pelvis/pelvis_tx/speed	/jointset/ground_pelvis/pelvis_ty/speed	/jointset/hip_l/hip_flexion_l/speed	/jointset/hip_l/hip_adduction_l/speed	/jointset/hip_l/hip_rotation_l/speed	/jointset/back/lumbar_extension/speed	/jointset/patellofemoral_l/patellar_flexion_l/speed	/jointset/knee_l/knee_flexion_l/speed	/jointset/knee_l/knee_adduction_l/speed	/jointset/knee_l/knee_rotation_l/speed	/jointset/ankle_l/ankle_angle_l/speed	/jointset/subtalar_l/subtalar_angle_l/speed	/forceset/tau_hip_flexion_l	/forceset/tau_hip_adduction_l	/forceset/tau_hip_rotation_l	/forceset/tau_knee_flexion_l	/forceset/tau_ankle_angle_l	/forceset/tau_subtalar_angle_l	/forceset/tau_lumbar_extension	lambda_cid13_p0	lambda_cid13_p1	lambda_cid13_p2	lambda_cid13_p3	lambda_cid13_p4	lambda_cid13_p5	lambda_cid14_p0	/jointset/ground_pelvis/pelvis_tilt/accel	/jointset/ground_pelvis/pelvis_tx/accel	/jointset/ground_pelvis/pelvis_ty/accel	/jointset/hip_l/hip_flexion_l/accel	/jointset/hip_l/hip_adduction_l/accel	/jointset/hip_l/hip_rotation_l/accel	/jointset/back/lumbar_extension/accel	/jointset/patellofemoral_l/patellar_flexion_l/accel	/jointset/knee_l/knee_flexion_l/accel	/jointset/knee_l/knee_adduction_l/accel	/jointset/knee_l/knee_rotation_l/accel	/jointset/ankle_l/ankle_angle_l/accel	/jointset/subtalar_l/subtalar_angle_l/accel	gamma_cid13_p0	gamma_cid13_p1	gamma_cid13_p2	gamma_cid13_p3	gamma_cid13_p4	gamma_cid13_p5	gamma_cid14_p0
1	-0.7459453251050255	-0.1660419780765055	0.6537314947934394	1.769710342702266	-0.4401145347642987	-0.2064256044219034	-0.2617834821268815	0.8760600539852358	0.876060053985226	-0.112969625581962	-0.1745169660514376	-0.08717192981173923	-0.1330769300334481	-0.01961161965020431	0.005611068136373491	0.003828115864685323	0.001323103954072794	0.0008880642012491285	-0.004759364564354576	-0.0001230911667335915	-0.01203490484037712	-0.01203490484037925	-0.001219171269293296	-2.548820683443917e-05	0.005284994100435038	0.003382406816175698	-0.4189906294795877	0.05734507218837769	-0.007701430894378068	-0.1354301442286964	0.1124664975744571	0.08010941417933137	0.3359416576401899	-3.471763591812571	-33.78264183893724	4.591925897508887	-3.224350410828836	-623.8102750611021	-42.65065789360968	-22.21655517963319	2.675765488003938	0.6572737840828632	1.355738208996172	-6.15152905403922	0.4424463075560584	-1.506493096755014	-0.02873684147439005	-3.135932691413292	-3.135932691413298	0.2723159774549248	-0.003547269002181295	0.1607624725659968	0.5390644581341724	-2.110208226390851e-09	-4.31251431225699e-11	4.241199690750452e-09	3.372553462859393e-09	-2.833919008845409e-09	2.835244599127512e-09	-7.008311023402919e-10
1.01	-0.7460088270437064	-0.1659530188788153	0.6538374407448128	1.769417446134545	-0.4400829169495474	-0.2065489013471601	-0.2617848162286108	0.8757829893334952	0.8757829893335436	-0.1129667260499512	-0.1745171758971888	-0.08711085909770069	-0.1330154415755165	0.006914479014187153	0.01219086973577336	0.01736057874179325	-0.0599059159081597	0.005437617832582275	-0.01989551666229716	-0.0001401640352739005	-0.04336396795384471	-0.0433639679538429	0.001805339298933566	-1.704248667127792e-05	0.00694730710692651	0.008925923958975224	-0.4188320349006632	0.05723509745820466	-0.007715411210182713	-0.1356210340203602	0.1129244722729568	0.08009706686179739	0.3358706571373997	-3.318776038152118	-33.81401674663006	4.608293621355413	-3.488210640186046	-623.7791661132078	-42.68027204697981	-22.22982359353723	2.641518421220126	0.6598482492278419	1.351924955530547	-6.109114011960791	0.461526982175824	-1.516503702881543	0.0123422620329948	-3.129283665301022	-3.129283665300439	0.3184574561880369	0.002960094322288991	0.1716895593375225	0.5635899680502776	-4.445584176107711e-09	-3.907277063480619e-09	1.62651258669583e-08	7.829128259089187e-10	-5.083582580507631e-09	1.347577446192858e-08	-4.080651295987783e-09
1.02	-0.7458069707226308	-0.1657979586848594	0.6540786962506498	1.768512154256272	-0.440005740180233	-0.2068234252807093	-0.2617862141047091	0.8751930559418231	0.875193055941928	-0.1129333936403211	-0.1745173173653785	-0.08703262048466306	-0.1328981990210175	0.03346003230111559	0.01883126738952451	0.0308900267574105	-0.1211559581562136	0.009999855114070942	-0.03500476622294655	-0.0001358460407379336	-0.07460865282681346	-0.07460865282680747	0.004867404254419005	-1.181269463941537e-05	0.008718573899289326	0.01453322612967172	-0.4186734403217355	0.05712512272802962	-0.007729391525988485	-0.1358119238120232	0.1133824469714564	0.08008471954426129	0.3357996566346142	-3.169307995428189	-33.84525235153158	4.625183857250222	-3.766318726886182	-623.8287231503522	-42.71650982492081	-22.25796125763331	2.679656412511363	0.6693929949530786	1.355135236698021	-6.155733531203466	0.4449830375871651	-1.501112589296371	-0.02445866885913014	-3.119057043313534	-3.119057043313489	0.2798268549066387	-0.004190454628432613	0.1825532297401986	0.5518214637135388	-6.816233321688336e-09	-7.398454711238636e-09	2.829582339258949e-08	-1.563150063782561e-09	-7.473327351553832e-09	2.41133045526724e-08	-7.404852040977512e-09
1.03	-0.7453396151287083	-0.1655761935519257	0.6544551848777767	1.766994375279233	-0.4398828834808871	-0.2072488581879568	-0.2617874821609615	0.8742911049136806	0.874291104913669	-0.1128693204841313	-0.1745174294855034	-0.08693618408505289	-0.1327245962460901	0.06000919473774674	0.02553169336202275	0.04440258992331987	-0.1823913736443915	0.01457384340846002	-0.05007200035763098	-0.0001163717686853037	-0.1057665454845662	-0.1057665454845697	0.007948178329996353	-1.085779132197039e-05	0.01058136238330964	0.02019584518611839	-0.4180843562229273	0.05703580052203373	-0.007759661511586526	-0.1360561395308604	0.1138582379503754	0.07999843371566348	0.3354324300010925	-2.998364532665023	-33.85312867003903	4.644052127198884	-4.032971393246539	-623.5972831448818	-42.76214100384193	-22.30095609799427	2.642260412768256	0.6718567274740843	1.348548557412285	-6.106178186058559	0.4639586676669904	-1.508064196388372	0.01535949141785044	-3.111902113611535	-3.111902113612965	0.3223442714381455	0.002211042438197165	0.19004058865153	0.5747566089536099	-9.187242397839e-09	-1.088582649907216e-08	4.032659001362297e-08	-3.90672746625711e-09	-9.864501522593748e-09	3.475080403349729e-08	-1.072848524057277e-08
1.04	-0.7446068250597135	-0.1652871262934519	0.6549666454767376	1.764864495621626	-0.4397142165101379	-0.207824670510717	-0.2617885136712579	0.8730780256116394	0.8730780256115116	-0.1127744112696729	-0.1745175375406701	-0.08682074001441679	-0.1324941123841296	0.08654692731555046	0.03229169249753811	0.0578844211242367	-0.2435760942699138	0.01916190939493799	-0.06508064932567155	-8.853684941467005e-05	-0.1368343076065342	-0.1368343076065462	0.01103461590776802	-1.099970295012352e-05	0.01252010810407276	0.02590944353629993	-0.4174952721241205	0.05694647831603544	-0.007789931497177016	-0.1363003552496964	0.1143340289292949	0.07991214788706338	0.3350652033675696	-2.83089079667864	-33.86087707286242	4.663447773947075	-4.314917278553889	-623.4465588657689	-42.81455763682617	-22.35874803431515	2.677370440745908	0.6813076275564672	1.3489888436995	-6.145594558672293	0.4477985760049469	-1.489395555967588	-0.02278653941552496	-3.101030936156581	-3.101030936156366	0.2809595553455013	-0.004409817617540789	0.1977446770886999	0.5620173224604899	-1.137181094650596e-08	-1.418924657891555e-08	5.182075079266896e-08	-6.279545266391509e-09	-1.191496009964967e-08	4.420764420001316e-08	-1.380637544618575e-08
1.05	-0.7436087289649516	-0.1649301562076295	0.6556127237207034	1.762123118070147	-0.4394996037220785	-0.2085502228878373	-0.261789245022211	0.8715547636047596	0.871554763604691	-0.1126486591988933	-0.1745176640674775	-0.08668556171964673	-0.1322062562754752	0.1130682882106077	0.03911267670584378	0.07132141210180533	-0.3046803698105675	0.02376391822112685	-0.08001463284557496	-5.756023719301286e-05	-0.1677988296668444	-0.1677988296668541	0.01411444952404719	-1.424873037620363e-05	0.0145252924894701	0.03167005632916742	-0.4165203395731496	0.05684049573236972	-0.007833992383729733	-0.1365578811520024	0.1147596874136697	0.0798158029139108	0.3344384563991902	-2.663194064710638	-33.86615967737724	4.684579321091815	-4.582673226886579	-623.0269226750181	-42.92149720175556	-22.431318608888	2.638915195842563	0.6840448685825996	1.339579078118486	-6.089990580605808	0.4668894984503186	-1.49313263662133	0.01606572715905603	-3.09126981926469	-3.09126981926451	0.321291267366118	0.001741032555931433	0.2033674349070331	0.5843203615828683	-1.355055322868906e-08	-1.748691816788425e-08	6.329814263915285e-08	-8.653276828952778e-09	-1.39547713143936e-08	5.362758876295689e-08	-1.687658618323678e-08
1.06	-0.7423455400048478	-0.1645046660695013	0.6563928768451117	1.758771268457492	-0.4392388733532536	-0.2094246616774803	-0.2617896614139201	0.8697224349816175	0.8697224349816081	-0.1124921495914301	-0.1745178183889868	-0.08653003915789348	-0.1318605466181155	0.1395655003839444	0.04599570295873291	0.08469939721270386	-0.3656705065049771	0.02838542554829517	-0.09485793183026348	-2.554500024727936e-05	-0.1986476308590128	-0.1986476308590215	0.01718612324420579	-1.655864335959742e-05	0.0165889615005383	0.03748015327735423	-0.4155454070221816	0.05673451314870011	-0.007878053270277069	-0.1368154070543073	0.1151853458980445	0.07971945794075425	0.3338117094308088	-2.498974038739414	-33.87131639981948	4.706242287005852	-4.866345153914311	-622.6887003824866	-43.03547700430785	-22.51857776421777	2.672540696401846	0.6937160364731311	1.337187670365469	-6.122766789423436	0.4516982762008432	-1.4712586489246	-0.02257881447071358	-3.077886762528248	-3.07788676252826	0.2793275761213854	-0.004221994728988852	0.2094416022228169	0.5719141535243346	-1.546311882880257e-08	-2.025664308484441e-08	7.385018616064509e-08	-1.087895544133281e-08	-1.597001879642604e-08	6.24059313751882e-08	-1.966629490454615e-08
1.07	-0.740817526447464	-0.1640100379130044	0.6573064662698986	1.754810193317897	-0.438931842379695	-0.2104470446742669	-0.2617897750003386	0.8675822257650275	0.8675822257649564	-0.1123050212897637	-0.1745180167039687	-0.08635363987187994	-0.1314565224886641	0.1660289476362806	0.05293984211330427	0.09800378669400442	-0.4265130556882366	0.03302490771940879	-0.109600150612004	2.425745487066045e-06	-0.2293725763200581	-0.2293725763200714	0.02023633749191408	-2.360356370784147e-05	0.01869573713153506	0.04333179287700543	-0.4141748328180279	0.05661428045183219	-0.007935813177081669	-0.137078198772408	0.1155344200384199	0.07960984899552614	0.3329142080757139	-2.342679348403397	-33.87090480204081	4.728822186462402	-5.120630961516413	-622.071684317999	-43.2023065713523	-22.62048735601602	2.632002875842487	0.6962472700442965	1.324855804102591	-6.060283797267839	0.4706898848893297	-1.472941691749256	0.01542472342422095	-3.066548489608056	-3.066548489608776	0.3173862773042856	0.000999211322546044	0.2120230215103933	0.59285068497258	-1.736152609476345e-08	-2.299828573201687e-08	8.435300902655266e-08	-1.30967588967883e-08	-1.798395969693127e-08	7.115014622408373e-08	-2.244108330586926e-08
